# Blender 3.3.1
# www.blender.org
mtllib Coffin.mtl
o CoffinB
v -0.631465 0.638379 -4.552524
v -1.370333 0.638379 1.050993
v 0.738778 0.638379 -4.552524
v 1.477646 0.638379 1.050993
v -0.807617 0.638379 3.440129
v 0.914929 0.638379 3.440129
v -0.631465 1.702896 -4.552524
v -1.370333 1.702896 1.050993
v 0.738778 1.702896 -4.552524
v 1.477646 1.702896 1.050993
v -0.807617 1.702896 3.440129
v 0.914929 1.702896 3.440129
v -0.704759 -0.062077 -4.636113
v -1.472084 -0.073606 1.056095
v 0.812072 -0.062077 -4.636113
v 1.579396 -0.073606 1.056095
v -0.876265 -0.062888 3.526821
v 0.983577 -0.062888 3.526821
v -0.721800 1.702896 -4.655550
v -1.507182 1.702896 1.057855
v 0.829112 1.702896 -4.655550
v 1.614494 1.702896 1.057855
v -0.892678 1.702896 3.547550
v 0.999990 1.702896 3.547550
vn -0.0000 1.0000 -0.0000
vn -0.0000 -0.0000 1.0000
vn 0.9734 -0.0000 -0.2293
vn -0.9914 -0.0000 0.1307
vn 0.9914 -0.0000 0.1307
vn -0.9734 -0.0000 -0.2293
vn -0.0000 -0.0000 -1.0000
vn -0.0000 -1.0000 -0.0020
vn -0.0000 -1.0000 0.0043
vn -0.0000 -0.0110 -0.9999
vn -0.9714 -0.0156 0.2370
vn 0.9907 -0.0153 -0.1349
vn -0.9907 -0.0153 -0.1349
vn 0.9714 -0.0156 0.2370
vn -0.0000 -0.0117 0.9999
vt 0.000000 0.000000
vt 1.000000 0.000000
vt 0.000000 1.000000
vt 1.000000 1.000000
vt 1.000000 0.000000
vt 1.000000 1.000000
vt 0.000000 0.000000
vt 1.000000 0.000000
vt 0.000000 1.000000
vt 1.000000 1.000000
vt 1.000000 0.000000
vt 1.000000 1.000000
vt 0.000000 0.000000
vt 1.000000 0.000000
vt 0.000000 1.000000
vt 1.000000 1.000000
vt 1.000000 0.000000
vt 1.000000 1.000000
vt 0.000000 0.000000
vt 1.000000 0.000000
vt 0.000000 1.000000
vt 1.000000 1.000000
vt 1.000000 0.000000
vt 1.000000 1.000000
s 0
f 1/1/1 2/2/1 4/4/1 3/3/1
f 4/4/1 2/2/1 5/5/1 6/6/1
f 1/1/2 3/3/2 9/9/2 7/7/2
f 5/5/3 2/2/3 8/8/3 11/11/3
f 3/3/4 4/4/4 10/10/4 9/9/4
f 2/2/5 1/1/5 7/7/5 8/8/5
f 4/4/6 6/6/6 12/12/6 10/10/6
f 6/6/7 5/5/7 11/11/7 12/12/7
f 13/13/8 15/15/8 16/16/8 14/14/8
f 16/16/9 18/18/9 17/17/9 14/14/9
f 13/13/10 19/19/10 21/21/10 15/15/10
f 17/17/11 23/23/11 20/20/11 14/14/11
f 15/15/12 21/21/12 22/22/12 16/16/12
f 14/14/13 20/20/13 19/19/13 13/13/13
f 16/16/14 22/22/14 24/24/14 18/18/14
f 18/18/15 24/24/15 23/23/15 17/17/15
f 7/7/1 9/9/1 21/21/1 19/19/1
f 8/8/1 7/7/1 19/19/1 20/20/1
f 9/9/1 10/10/1 22/22/1 21/21/1
f 12/12/1 11/11/1 23/23/1 24/24/1
f 11/11/1 8/8/1 20/20/1 23/23/1
f 10/10/1 12/12/1 24/24/1 22/22/1
o CoffinT
v 1.907097 1.114694 1.807929
v 2.021980 0.944280 1.823889
v 1.860613 1.102937 2.016997
v 1.975495 0.932523 2.032957
v 2.198124 0.988830 1.031662
v 2.083241 1.159244 1.015702
v 1.894138 0.911946 2.398868
v 1.779256 1.082360 2.382908
v 1.680104 1.451409 1.776395
v 2.248969 0.607569 1.855423
v 2.202485 0.595812 2.064491
v 1.633620 1.439653 1.985462
v 2.723231 1.964429 -3.694417
v 1.054457 2.288316 1.819098
v 3.580652 0.692551 -3.575300
v 2.771127 -0.258150 2.057584
v 0.844525 1.673854 4.262335
v 1.914571 0.086575 4.410989
v 3.628509 0.725985 -3.562779
v 2.771087 1.997863 -3.681896
v 1.104828 2.322386 1.820308
v 2.821498 -0.224079 2.058794
v 0.892381 1.707288 4.274855
v 1.962427 0.120009 4.423510
v 3.568008 0.773425 -3.458217
v 2.782857 1.938098 -3.567293
v 1.182839 2.216499 1.804888
v 2.754813 -0.115328 2.023272
v 0.956131 1.645111 4.197224
v 1.935984 0.191622 4.333348
v 3.498904 0.810025 -3.291821
v 2.776045 1.882297 -3.392244
v 1.251627 2.125626 1.784629
v 2.698886 -0.021202 1.985687
v 1.024061 1.594804 4.071918
v 1.926176 0.256630 4.197243
v 3.604634 0.799014 -3.448635
v 2.819484 1.963686 -3.557711
v 1.219465 2.242087 1.814470
v 1.972610 0.217210 4.342931
v 1.962802 0.282218 4.206825
v 2.791440 -0.089740 2.032854
v 0.992757 1.670699 4.206806
v 3.535530 0.835614 -3.282239
v 2.812671 1.907885 -3.382661
v 1.290646 2.151819 1.783450
v 2.737905 0.004992 1.984509
v 1.060687 1.620392 4.081501
v 1.889338 1.123006 2.024513
v 1.807981 1.102429 2.390423
v 1.662345 1.459721 1.992978
v 2.111967 1.179313 1.023217
v 2.226850 1.008899 1.039177
v 1.922864 0.932015 2.406383
v 2.050705 0.964349 1.831405
v 1.935822 1.134763 1.815445
v 2.004221 0.952592 2.040473
v 2.263841 0.624134 1.925249
v 2.277695 0.627638 1.862939
v 2.231210 0.615881 2.072006
v 1.694975 1.467974 1.846220
v 1.708830 1.471478 1.783910
vn -0.8015 -0.5600 -0.2097
vn 0.8015 0.5600 0.2097
vn 0.2167 0.0548 -0.9747
vn 0.5106 -0.8046 0.3031
vn 0.5708 -0.8191 -0.0564
vn -0.5337 0.8192 -0.2098
vn -0.5741 0.8044 0.1524
vn -0.2167 -0.0548 0.9747
vn 0.4977 -0.8191 0.2852
vn -0.5676 0.8221 0.0436
vn -0.5256 0.8270 -0.1994
vn 0.5699 -0.8112 -0.1311
vn -0.5909 0.7956 0.1340
vn 0.5388 -0.8190 0.1973
vn 0.5801 -0.8132 -0.0458
vn -0.5203 0.8059 -0.2825
vn 0.5573 -0.8267 0.0774
vn -0.5573 0.8267 -0.0774
vt 0.375000 1.000000
vt 0.125000 0.750000
vt 0.375000 0.250000
vt 0.125000 0.500000
vt 0.375000 0.750000
vt 0.375000 0.500000
vt 0.375000 0.250000
vt 0.125000 0.500000
vt 0.375000 0.000000
vt 0.375000 1.000000
vt 0.125000 0.750000
vt 0.375000 0.500000
vt 0.375000 0.750000
vt 0.375000 1.000000
vt 0.125000 0.750000
vt 0.375000 0.250000
vt 0.125000 0.500000
vt 0.375000 0.500000
vt 0.375000 0.750000
vt 0.000000 0.000000
vt 1.000000 0.000000
vt 0.000000 1.000000
vt 1.000000 1.000000
vt 1.000000 0.000000
vt 1.000000 1.000000
vt 0.000000 1.000000
vt 0.000000 0.000000
vt 1.000000 0.000000
vt 1.000000 1.000000
vt 1.000000 0.000000
vt 1.000000 1.000000
vt 0.000000 1.000000
vt 0.000000 0.000000
vt 1.000000 0.000000
vt 1.000000 1.000000
vt 1.000000 0.000000
vt 1.000000 1.000000
vt 0.000000 1.000000
vt 0.000000 0.000000
vt 1.000000 0.000000
vt 1.000000 1.000000
vt 1.000000 0.000000
vt 1.000000 1.000000
vt 0.000000 1.000000
vt 0.000000 0.000000
vt 1.000000 0.000000
vt 1.000000 1.000000
vt 1.000000 1.000000
vt 1.000000 1.000000
vt 1.000000 0.000000
vt 0.000000 1.000000
vt 0.000000 0.000000
vt 1.000000 0.000000
vt 1.000000 1.000000
vt 1.000000 0.000000
vt 0.408995 0.750000
vt 1.000000 0.462682
vt 0.408995 0.750000
vt 1.000000 0.460393
vt 0.408995 0.750000
vt 1.000000 0.303658
vt 0.408995 0.000000
vt 0.408995 1.000000
vt 0.836521 0.460591
vt 0.408995 0.250000
vt 0.836521 0.545553
vt 0.408995 0.500000
vt 1.000000 0.545781
vt 0.408995 0.250000
vt 0.988080 0.542621
vt 0.408995 1.000000
vt 0.988080 0.463127
vt 0.408995 0.500000
vt 1.000000 0.543134
vt 0.408995 0.324510
vt 1.000000 0.699400
vt 0.408995 0.250000
vt 0.988080 0.699700
vt 0.408995 0.500000
vt 1.000000 0.702163
vt 0.408995 0.925490
vt 1.000000 0.306336
vt 0.408995 1.000000
vt 0.988080 0.306046
s 0
f 37/44/16 39/46/16 40/47/16 38/45/16
f 40/47/16 42/49/16 41/48/16 38/45/16
f 47/54/17 48/55/17 54/61/17 53/60/17
f 45/52/17 47/54/17 53/60/17 51/58/17
f 39/46/18 37/44/18 44/51/18 43/50/18
f 42/49/19 40/47/19 46/53/19 48/55/19
f 40/47/20 39/46/20 43/50/20 46/53/20
f 37/44/21 38/45/21 45/52/21 44/51/21
f 38/45/22 41/48/22 47/54/22 45/52/22
f 41/48/23 42/49/23 48/55/23 47/54/23
f 56/63/23 55/62/23 68/75/23 69/76/23
f 54/61/24 52/59/24 66/73/24 64/71/24
f 43/50/17 44/51/17 50/57/17 49/56/17
f 48/55/17 46/53/17 52/59/17 54/61/17
f 46/53/17 43/50/17 49/56/17 52/59/17
f 44/51/17 45/52/17 51/58/17 50/57/17
f 55/62/25 58/65/25 71/78/25 68/75/25
f 50/57/26 51/58/26 63/70/26 62/69/26
f 59/66/27 57/64/27 70/77/27 72/79/27
f 53/60/23 54/61/23 64/71/23 67/74/23
f 61/68/17 62/69/17 69/76/17 68/75/17
f 67/74/17 64/71/17 65/72/17 72/79/17
f 64/71/17 66/73/17 71/78/17 65/72/17
f 66/73/17 61/68/17 68/75/17 71/78/17
f 62/69/17 63/70/17 70/77/17 69/76/17
f 63/70/17 67/74/17 72/79/17 70/77/17
f 60/67/18 59/66/18 72/79/18 65/72/18
f 51/58/28 53/60/28 67/74/28 63/70/28
f 57/64/29 56/63/29 69/76/29 70/77/29
f 52/59/30 49/56/30 61/68/30 66/73/30
f 58/65/31 60/67/31 65/72/31 71/78/31
f 49/56/18 50/57/18 62/69/18 61/68/18
f 28/30/17 27/29/17 32/37/17 31/36/17
f 32/37/32 27/29/32 73/80/32 74/82/32
f 27/29/18 36/43/18 75/84/18 73/80/18
f 26/28/17 25/26/17 27/29/17 28/30/17
f 76/86/23 30/33/23 29/31/23 77/89/23
f 31/36/18 32/37/18 74/82/18 78/91/18
f 77/89/33 29/31/33 26/27/33 79/93/33
f 25/25/32 30/34/32 76/87/32 80/95/32
f 81/97/33 28/30/33 31/36/33 78/91/33
f 25/26/17 26/28/17 29/32/17 30/35/17
f 83/101/33 34/40/33 35/42/33 84/103/33 82/99/33
f 36/43/32 33/38/32 86/107/32 85/105/32 75/84/32
f 79/93/23 26/27/23 34/40/23 83/101/23
f 86/107/23 33/38/23 25/25/23 80/95/23
f 27/29/17 25/26/17 33/39/17 36/43/17
f 35/42/18 28/30/18 81/97/18 84/103/18
f 26/28/17 28/30/17 35/42/17 34/41/17
f 82/100/17 58/65/17 55/62/17 56/63/17 57/64/17 85/106/17 86/108/17 80/96/17 76/88/17 77/90/17 79/94/17 83/102/17
f 81/98/17 78/92/17 74/83/17 73/81/17 75/85/17 85/106/17 57/64/17 59/66/17 60/67/17 58/65/17 82/100/17 84/104/17
